<svg width="1032" height="1032" viewBox="0 0 1032 1032" fill="none" xmlns="http://www.w3.org/2000/svg">
<g filter="url(#filter0_d_1_2)">
<rect width="1024" height="1024" transform="translate(4)" fill="#092036"/>
<path fill-rule="evenodd" clip-rule="evenodd" d="M489.356 225.177L489.768 153.498C490.173 150.612 491.906 145.716 495.708 141.58C499.406 137.557 505.266 134 514.771 134C524.219 134 529.873 137.512 533.559 141.552C537.169 145.51 539.229 150.397 540.271 154.147V225.099C532.115 223.395 523.662 222.5 515 222.5C506.206 222.5 497.628 223.423 489.356 225.177ZM469.321 231.261L469.774 152.331L469.824 151.846C470.533 144.994 473.921 135.729 480.984 128.045C488.336 120.047 499.476 114 514.771 114C530.123 114 541.053 120.092 548.334 128.073C555.333 135.745 558.588 144.713 559.992 150.529L560.271 151.685V231.099C605.8 249.131 638 293.555 638 345.5C638 363.527 634.122 380.649 627.154 396.076L711.351 638.5H766.271C771.794 638.5 776.271 642.977 776.271 648.5C776.271 654.023 771.794 658.5 766.271 658.5H718.298L757.419 771.14C760.098 778.484 762.061 791.134 759.377 804.048C756.691 816.968 749.198 830.568 733.058 838.683L755.78 895.274C757.838 900.399 755.351 906.222 750.226 908.28C745.101 910.338 739.278 907.851 737.22 902.726L714.098 845.139C701.254 847.582 689.977 845.716 680.758 841.551C668.234 835.892 659.692 826.032 656.655 818.06C654.028 811.164 628.947 740.526 600.147 658.5H430.124C401.324 740.526 376.243 811.164 373.616 818.06C370.579 826.032 362.038 835.892 349.513 841.551C340.294 845.716 329.018 847.582 316.173 845.139L293.051 902.726C290.993 907.851 285.17 910.338 280.045 908.28C274.92 906.222 272.433 900.399 274.491 895.274L297.213 838.683C281.073 830.568 273.58 816.968 270.895 804.048C268.21 791.134 270.174 778.484 272.852 771.14L311.973 658.5H265.271C259.748 658.5 255.271 654.023 255.271 648.5C255.271 642.977 259.748 638.5 265.271 638.5H318.92L402.999 396.414C395.935 380.899 392 363.659 392 345.5C392 293.71 424.008 249.396 469.321 231.261ZM613.845 418.715C598.813 438.976 577.699 454.455 553.203 462.452C594.366 583.051 670.786 798.973 675.345 810.94C676.308 813.468 680.766 819.608 688.992 823.324C695.218 826.137 703.828 827.638 714.906 824.393C715.338 824.138 715.794 823.913 716.274 823.72C717.129 823.377 718.004 823.16 718.878 823.061C720.169 822.573 721.49 822.023 722.842 821.405C733.385 816.586 738.027 808.485 739.795 799.977C741.657 791.02 740.148 782.121 738.614 777.951L738.583 777.866L613.845 418.715ZM515 468.5C521.342 468.5 527.572 468.02 533.655 467.094C550.015 515.057 572.141 578.622 593.131 638.5H437.141C458.125 578.638 480.244 515.091 496.602 467.133C502.604 468.033 508.748 468.5 515 468.5ZM477.041 462.531C452.541 454.59 431.41 439.17 416.339 418.964L291.688 777.866L291.657 777.951C290.123 782.121 288.614 791.02 290.476 799.977C292.244 808.485 296.886 816.586 307.429 821.405C308.781 822.023 310.102 822.573 311.393 823.061C312.267 823.16 313.142 823.377 313.997 823.72C314.477 823.913 314.933 824.138 315.365 824.393C326.443 827.638 335.053 826.137 341.279 823.324C349.505 819.608 353.963 813.468 354.926 810.94C359.484 798.976 435.872 583.145 477.041 462.531ZM615 345.5C615 400.728 570.228 445.5 515 445.5C459.772 445.5 415 400.728 415 345.5C415 290.272 459.772 245.5 515 245.5C570.228 245.5 615 290.272 615 345.5ZM572 345.5C572 376.98 546.48 402.5 515 402.5C483.52 402.5 458 376.98 458 345.5C458 314.02 483.52 288.5 515 288.5C546.48 288.5 572 314.02 572 345.5ZM548 346C548 364.502 533.002 379.5 514.5 379.5C495.998 379.5 481 364.502 481 346C481 327.498 495.998 312.5 514.5 312.5C533.002 312.5 548 327.498 548 346Z" fill="white"/>
</g>
<defs>
<filter id="filter0_d_1_2" x="0" y="0" width="1032" height="1032" filterUnits="userSpaceOnUse" color-interpolation-filters="sRGB">
<feFlood flood-opacity="0" result="BackgroundImageFix"/>
<feColorMatrix in="SourceAlpha" type="matrix" values="0 0 0 0 0 0 0 0 0 0 0 0 0 0 0 0 0 0 127 0" result="hardAlpha"/>
<feOffset dy="4"/>
<feGaussianBlur stdDeviation="2"/>
<feComposite in2="hardAlpha" operator="out"/>
<feColorMatrix type="matrix" values="0 0 0 0 0 0 0 0 0 0 0 0 0 0 0 0 0 0 0.25 0"/>
<feBlend mode="normal" in2="BackgroundImageFix" result="effect1_dropShadow_1_2"/>
<feBlend mode="normal" in="SourceGraphic" in2="effect1_dropShadow_1_2" result="shape"/>
</filter>
</defs>
</svg>
